<?xml version="1.0" encoding="UTF-8" standalone="no"?>
<!-- Created with Inkscape (http://www.inkscape.org/) -->

<svg
   width="817.38892mm"
   height="136.10571mm"
   viewBox="0 0 817.38891 136.10571"
   version="1.1"
   id="svg5"
   inkscape:version="1.2.1 (9c6d41e410, 2022-07-14)"
   sodipodi:docname="Poition_Pack.svg"
   inkscape:export-filename="Poition_Pac.png"
   inkscape:export-xdpi="96"
   inkscape:export-ydpi="96"
   xmlns:inkscape="http://www.inkscape.org/namespaces/inkscape"
   xmlns:sodipodi="http://sodipodi.sourceforge.net/DTD/sodipodi-0.dtd"
   xmlns:xlink="http://www.w3.org/1999/xlink"
   xmlns="http://www.w3.org/2000/svg"
   xmlns:svg="http://www.w3.org/2000/svg">
  <sodipodi:namedview
     id="namedview7"
     pagecolor="#505050"
     bordercolor="#eeeeee"
     borderopacity="1"
     inkscape:showpageshadow="0"
     inkscape:pageopacity="0"
     inkscape:pagecheckerboard="0"
     inkscape:deskcolor="#505050"
     inkscape:document-units="mm"
     showgrid="false"
     inkscape:zoom="0.25"
     inkscape:cx="1752"
     inkscape:cy="20"
     inkscape:window-width="1920"
     inkscape:window-height="1017"
     inkscape:window-x="1912"
     inkscape:window-y="-8"
     inkscape:window-maximized="1"
     inkscape:current-layer="layer1" />
  <defs
     id="defs2">
    <linearGradient
       inkscape:collect="always"
       id="linearGradient25635">
      <stop
         style="stop-color:#91208b;stop-opacity:1;"
         offset="0"
         id="stop25629" />
      <stop
         style="stop-color:#851d80;stop-opacity:1;"
         offset="0.50282484"
         id="stop25631" />
      <stop
         style="stop-color:#4d034e;stop-opacity:1;"
         offset="1"
         id="stop25633" />
    </linearGradient>
    <linearGradient
       inkscape:collect="always"
       id="linearGradient24901">
      <stop
         style="stop-color:#d74cd8;stop-opacity:1;"
         offset="0"
         id="stop24895" />
      <stop
         style="stop-color:#d84ccd;stop-opacity:0;"
         offset="0.50282484"
         id="stop24897" />
      <stop
         style="stop-color:#f045f7;stop-opacity:0.41584161;"
         offset="1"
         id="stop24899" />
    </linearGradient>
    <linearGradient
       inkscape:collect="always"
       id="linearGradient16588">
      <stop
         style="stop-color:#915620;stop-opacity:1;"
         offset="0"
         id="stop16582" />
      <stop
         style="stop-color:#854b1d;stop-opacity:1;"
         offset="0.50282484"
         id="stop16584" />
      <stop
         style="stop-color:#4e2703;stop-opacity:1;"
         offset="1"
         id="stop16586" />
    </linearGradient>
    <linearGradient
       inkscape:collect="always"
       id="linearGradient16580">
      <stop
         style="stop-color:#d8824c;stop-opacity:1;"
         offset="0"
         id="stop16574" />
      <stop
         style="stop-color:#d88a4c;stop-opacity:0;"
         offset="0.50282484"
         id="stop16576" />
      <stop
         style="stop-color:#f78f45;stop-opacity:0.41584161;"
         offset="1"
         id="stop16578" />
    </linearGradient>
    <linearGradient
       inkscape:collect="always"
       id="linearGradient16572">
      <stop
         style="stop-color:#206591;stop-opacity:1;"
         offset="0"
         id="stop16566" />
      <stop
         style="stop-color:#1d5a85;stop-opacity:1;"
         offset="0.50282484"
         id="stop16568" />
      <stop
         style="stop-color:#03284e;stop-opacity:1;"
         offset="1"
         id="stop16570" />
    </linearGradient>
    <linearGradient
       inkscape:collect="always"
       id="linearGradient16564">
      <stop
         style="stop-color:#4c78d8;stop-opacity:1;"
         offset="0"
         id="stop16558" />
      <stop
         style="stop-color:#4c81d8;stop-opacity:0;"
         offset="0.50282484"
         id="stop16560" />
      <stop
         style="stop-color:#4593f7;stop-opacity:0.41584161;"
         offset="1"
         id="stop16562" />
    </linearGradient>
    <inkscape:perspective
       sodipodi:type="inkscape:persp3d"
       inkscape:vp_x="0 : -12.394291 : 1"
       inkscape:vp_y="0 : 999.99997 : 0"
       inkscape:vp_z="210 : -12.394291 : 1"
       inkscape:persp3d-origin="105 : -61.894291 : 1"
       id="perspective6358" />
    <linearGradient
       inkscape:collect="always"
       id="linearGradient4837">
      <stop
         style="stop-color:#642091;stop-opacity:1;"
         offset="0"
         id="stop4831" />
      <stop
         style="stop-color:#5c1d85;stop-opacity:1;"
         offset="0.50282484"
         id="stop4833" />
      <stop
         style="stop-color:#35034e;stop-opacity:1;"
         offset="1"
         id="stop4835" />
    </linearGradient>
    <linearGradient
       inkscape:collect="always"
       id="linearGradient4829">
      <stop
         style="stop-color:#b14cd8;stop-opacity:1;"
         offset="0"
         id="stop4823" />
      <stop
         style="stop-color:#ba4cd8;stop-opacity:0;"
         offset="0.50282484"
         id="stop4825" />
      <stop
         style="stop-color:#b145f7;stop-opacity:0.41584161;"
         offset="1"
         id="stop4827" />
    </linearGradient>
    <linearGradient
       inkscape:collect="always"
       id="linearGradient4821">
      <stop
         style="stop-color:#d8d14c;stop-opacity:1;"
         offset="0"
         id="stop4815" />
      <stop
         style="stop-color:#d8d14c;stop-opacity:0;"
         offset="0.50282484"
         id="stop4817" />
      <stop
         style="stop-color:#f5f745;stop-opacity:0.41584161;"
         offset="1"
         id="stop4819" />
    </linearGradient>
    <linearGradient
       inkscape:collect="always"
       id="linearGradient4813">
      <stop
         style="stop-color:#918b20;stop-opacity:1;"
         offset="0"
         id="stop4807" />
      <stop
         style="stop-color:#85771d;stop-opacity:1;"
         offset="0.50282484"
         id="stop4809" />
      <stop
         style="stop-color:#4e4d03;stop-opacity:1;"
         offset="1"
         id="stop4811" />
    </linearGradient>
    <linearGradient
       inkscape:collect="always"
       id="linearGradient4805">
      <stop
         style="stop-color:#209122;stop-opacity:1;"
         offset="0"
         id="stop4799" />
      <stop
         style="stop-color:#1d8528;stop-opacity:1;"
         offset="0.50282484"
         id="stop4801" />
      <stop
         style="stop-color:#0d4e03;stop-opacity:1;"
         offset="1"
         id="stop4803" />
    </linearGradient>
    <linearGradient
       inkscape:collect="always"
       id="linearGradient4797">
      <stop
         style="stop-color:#4cd864;stop-opacity:1;"
         offset="0"
         id="stop4791" />
      <stop
         style="stop-color:#4cd857;stop-opacity:0;"
         offset="0.50282484"
         id="stop4793" />
      <stop
         style="stop-color:#45f753;stop-opacity:0.41584161;"
         offset="1"
         id="stop4795" />
    </linearGradient>
    <linearGradient
       inkscape:collect="always"
       id="linearGradient4656">
      <stop
         style="stop-color:#912020;stop-opacity:1;"
         offset="0"
         id="stop4650" />
      <stop
         style="stop-color:#851d1d;stop-opacity:1;"
         offset="0.50282484"
         id="stop4652" />
      <stop
         style="stop-color:#4e0303;stop-opacity:1;"
         offset="1"
         id="stop4654" />
    </linearGradient>
    <linearGradient
       inkscape:collect="always"
       id="linearGradient4636">
      <stop
         style="stop-color:#d84c4c;stop-opacity:1;"
         offset="0"
         id="stop4632" />
      <stop
         style="stop-color:#d84c4c;stop-opacity:0;"
         offset="0.50282484"
         id="stop4634" />
      <stop
         style="stop-color:#f74545;stop-opacity:0.41584161;"
         offset="1"
         id="stop4640" />
    </linearGradient>
    <inkscape:path-effect
       effect="powerstroke"
       id="path-effect4338"
       is_visible="true"
       lpeversion="1"
       offset_points="0,1.5630577"
       not_jump="false"
       sort_points="true"
       interpolator_type="CubicBezierJohan"
       interpolator_beta="0.2"
       start_linecap_type="zerowidth"
       linejoin_type="extrp_arc"
       miter_limit="4"
       scale_width="1"
       end_linecap_type="zerowidth" />
    <linearGradient
       inkscape:collect="always"
       id="linearGradient4265">
      <stop
         style="stop-color:#ffffff;stop-opacity:0;"
         offset="0"
         id="stop4263" />
      <stop
         style="stop-color:#ffffff;stop-opacity:1;"
         offset="1"
         id="stop4261" />
    </linearGradient>
    <linearGradient
       inkscape:collect="always"
       id="linearGradient3195">
      <stop
         style="stop-color:#9a9a9a;stop-opacity:0.40000001;"
         offset="0.37570623"
         id="stop3189" />
      <stop
         style="stop-color:#ffffff;stop-opacity:0.80000001;"
         offset="0.7175141"
         id="stop3191" />
      <stop
         style="stop-color:#999999;stop-opacity:0.40000001;"
         offset="0.90112996"
         id="stop3193" />
    </linearGradient>
    <linearGradient
       inkscape:collect="always"
       id="linearGradient2738">
      <stop
         style="stop-color:#ffffff;stop-opacity:0;"
         offset="0.37570623"
         id="stop2734" />
      <stop
         style="stop-color:#ffffff;stop-opacity:0.7772277;"
         offset="0.7175141"
         id="stop2742" />
      <stop
         style="stop-color:#ffffff;stop-opacity:0;"
         offset="0.90112996"
         id="stop2736" />
    </linearGradient>
    <linearGradient
       inkscape:collect="always"
       xlink:href="#linearGradient2738"
       id="linearGradient2740"
       x1="-2.8468497"
       y1="26.863775"
       x2="53.581642"
       y2="26.863775"
       gradientUnits="userSpaceOnUse" />
    <linearGradient
       inkscape:collect="always"
       xlink:href="#linearGradient3195"
       id="linearGradient3187"
       x1="-2.8468497"
       y1="26.863775"
       x2="53.581642"
       y2="26.863775"
       gradientUnits="userSpaceOnUse" />
    <linearGradient
       inkscape:collect="always"
       xlink:href="#linearGradient2738"
       id="linearGradient4026"
       x1="19.861328"
       y1="174.3788"
       x2="173.83008"
       y2="174.3788"
       gradientUnits="userSpaceOnUse" />
    <linearGradient
       inkscape:collect="always"
       xlink:href="#linearGradient3195"
       id="linearGradient4034"
       x1="19.861328"
       y1="174.3788"
       x2="173.83008"
       y2="174.3788"
       gradientUnits="userSpaceOnUse" />
    <linearGradient
       inkscape:collect="always"
       xlink:href="#linearGradient3195"
       id="linearGradient4044"
       x1="-102.08354"
       y1="373.87308"
       x2="300.54712"
       y2="373.87308"
       gradientUnits="userSpaceOnUse" />
    <linearGradient
       inkscape:collect="always"
       xlink:href="#linearGradient4265"
       id="linearGradient4267"
       x1="44.581108"
       y1="94.963402"
       x2="96.739098"
       y2="74.628609"
       gradientUnits="userSpaceOnUse" />
    <inkscape:path-effect
       effect="fill_between_many"
       method="bsplinespiro"
       linkedpaths="#path4336,0,1"
       id="path-effect4340"
       is_visible="true"
       lpeversion="0"
       join="true"
       close="true"
       autoreverse="true" />
    <radialGradient
       inkscape:collect="always"
       xlink:href="#linearGradient4636"
       id="radialGradient4638"
       cx="60.121403"
       cy="122.67934"
       fx="60.121403"
       fy="122.67934"
       r="52.225349"
       gradientTransform="matrix(0.17250407,-0.98500881,1.3878551,0.24305433,-120.51093,150.29922)"
       gradientUnits="userSpaceOnUse" />
    <radialGradient
       inkscape:collect="always"
       xlink:href="#linearGradient4656"
       id="radialGradient4648"
       cx="99.233612"
       cy="435.51495"
       fx="99.233612"
       fy="435.51495"
       r="198.96115"
       gradientTransform="matrix(1,0,0,0.6511358,0,151.93558)"
       gradientUnits="userSpaceOnUse" />
    <linearGradient
       inkscape:collect="always"
       xlink:href="#linearGradient2738"
       id="linearGradient4695"
       gradientUnits="userSpaceOnUse"
       x1="-2.8468497"
       y1="26.863775"
       x2="53.581642"
       y2="26.863775" />
    <linearGradient
       inkscape:collect="always"
       xlink:href="#linearGradient3195"
       id="linearGradient4697"
       gradientUnits="userSpaceOnUse"
       x1="-2.8468497"
       y1="26.863775"
       x2="53.581642"
       y2="26.863775" />
    <linearGradient
       inkscape:collect="always"
       xlink:href="#linearGradient2738"
       id="linearGradient4699"
       gradientUnits="userSpaceOnUse"
       x1="19.861328"
       y1="174.3788"
       x2="173.83008"
       y2="174.3788" />
    <linearGradient
       inkscape:collect="always"
       xlink:href="#linearGradient3195"
       id="linearGradient4701"
       gradientUnits="userSpaceOnUse"
       x1="19.861328"
       y1="174.3788"
       x2="173.83008"
       y2="174.3788" />
    <radialGradient
       inkscape:collect="always"
       xlink:href="#linearGradient4805"
       id="radialGradient4703"
       gradientUnits="userSpaceOnUse"
       gradientTransform="matrix(1,0,0,0.6511358,0,151.93558)"
       cx="99.233612"
       cy="435.51495"
       fx="99.233612"
       fy="435.51495"
       r="198.96115" />
    <linearGradient
       inkscape:collect="always"
       xlink:href="#linearGradient3195"
       id="linearGradient4705"
       gradientUnits="userSpaceOnUse"
       x1="-102.08354"
       y1="373.87308"
       x2="300.54712"
       y2="373.87308" />
    <radialGradient
       inkscape:collect="always"
       xlink:href="#linearGradient4797"
       id="radialGradient4707"
       gradientUnits="userSpaceOnUse"
       gradientTransform="matrix(0.17250407,-0.98500881,1.3878551,0.24305433,-120.51093,150.29922)"
       cx="60.121403"
       cy="122.67934"
       fx="60.121403"
       fy="122.67934"
       r="52.225349" />
    <linearGradient
       inkscape:collect="always"
       xlink:href="#linearGradient4265"
       id="linearGradient4709"
       gradientUnits="userSpaceOnUse"
       x1="44.581108"
       y1="94.963402"
       x2="96.739098"
       y2="74.628609" />
    <linearGradient
       inkscape:collect="always"
       xlink:href="#linearGradient2738"
       id="linearGradient4735"
       gradientUnits="userSpaceOnUse"
       x1="-2.8468497"
       y1="26.863775"
       x2="53.581642"
       y2="26.863775" />
    <linearGradient
       inkscape:collect="always"
       xlink:href="#linearGradient3195"
       id="linearGradient4737"
       gradientUnits="userSpaceOnUse"
       x1="-2.8468497"
       y1="26.863775"
       x2="53.581642"
       y2="26.863775" />
    <linearGradient
       inkscape:collect="always"
       xlink:href="#linearGradient2738"
       id="linearGradient4739"
       gradientUnits="userSpaceOnUse"
       x1="19.861328"
       y1="174.3788"
       x2="173.83008"
       y2="174.3788" />
    <linearGradient
       inkscape:collect="always"
       xlink:href="#linearGradient3195"
       id="linearGradient4741"
       gradientUnits="userSpaceOnUse"
       x1="19.861328"
       y1="174.3788"
       x2="173.83008"
       y2="174.3788" />
    <radialGradient
       inkscape:collect="always"
       xlink:href="#linearGradient4813"
       id="radialGradient4743"
       gradientUnits="userSpaceOnUse"
       gradientTransform="matrix(1,0,0,0.6511358,0,151.93558)"
       cx="99.233612"
       cy="435.51495"
       fx="99.233612"
       fy="435.51495"
       r="198.96115" />
    <linearGradient
       inkscape:collect="always"
       xlink:href="#linearGradient3195"
       id="linearGradient4745"
       gradientUnits="userSpaceOnUse"
       x1="-102.08354"
       y1="373.87308"
       x2="300.54712"
       y2="373.87308" />
    <radialGradient
       inkscape:collect="always"
       xlink:href="#linearGradient4821"
       id="radialGradient4747"
       gradientUnits="userSpaceOnUse"
       gradientTransform="matrix(0.17250407,-0.98500881,1.3878551,0.24305433,-120.51093,150.29922)"
       cx="60.121403"
       cy="122.67934"
       fx="60.121403"
       fy="122.67934"
       r="52.225349" />
    <linearGradient
       inkscape:collect="always"
       xlink:href="#linearGradient4265"
       id="linearGradient4749"
       gradientUnits="userSpaceOnUse"
       x1="44.581108"
       y1="94.963402"
       x2="96.739098"
       y2="74.628609" />
    <linearGradient
       inkscape:collect="always"
       xlink:href="#linearGradient2738"
       id="linearGradient4775"
       gradientUnits="userSpaceOnUse"
       x1="-2.8468497"
       y1="26.863775"
       x2="53.581642"
       y2="26.863775" />
    <linearGradient
       inkscape:collect="always"
       xlink:href="#linearGradient3195"
       id="linearGradient4777"
       gradientUnits="userSpaceOnUse"
       x1="-2.8468497"
       y1="26.863775"
       x2="53.581642"
       y2="26.863775" />
    <linearGradient
       inkscape:collect="always"
       xlink:href="#linearGradient2738"
       id="linearGradient4779"
       gradientUnits="userSpaceOnUse"
       x1="19.861328"
       y1="174.3788"
       x2="173.83008"
       y2="174.3788" />
    <linearGradient
       inkscape:collect="always"
       xlink:href="#linearGradient3195"
       id="linearGradient4781"
       gradientUnits="userSpaceOnUse"
       x1="19.861328"
       y1="174.3788"
       x2="173.83008"
       y2="174.3788" />
    <radialGradient
       inkscape:collect="always"
       xlink:href="#linearGradient4837"
       id="radialGradient4783"
       gradientUnits="userSpaceOnUse"
       gradientTransform="matrix(1,0,0,0.6511358,0,151.93558)"
       cx="99.233612"
       cy="435.51495"
       fx="99.233612"
       fy="435.51495"
       r="198.96115" />
    <linearGradient
       inkscape:collect="always"
       xlink:href="#linearGradient3195"
       id="linearGradient4785"
       gradientUnits="userSpaceOnUse"
       x1="-102.08354"
       y1="373.87308"
       x2="300.54712"
       y2="373.87308" />
    <radialGradient
       inkscape:collect="always"
       xlink:href="#linearGradient4829"
       id="radialGradient4787"
       gradientUnits="userSpaceOnUse"
       gradientTransform="matrix(0.17250407,-0.98500881,1.3878551,0.24305433,-120.51093,150.29922)"
       cx="60.121403"
       cy="122.67934"
       fx="60.121403"
       fy="122.67934"
       r="52.225349" />
    <linearGradient
       inkscape:collect="always"
       xlink:href="#linearGradient4265"
       id="linearGradient4789"
       gradientUnits="userSpaceOnUse"
       x1="44.581108"
       y1="94.963402"
       x2="96.739098"
       y2="74.628609" />
    <linearGradient
       inkscape:collect="always"
       xlink:href="#linearGradient2738"
       id="linearGradient16479"
       gradientUnits="userSpaceOnUse"
       x1="-2.8468497"
       y1="26.863775"
       x2="53.581642"
       y2="26.863775" />
    <linearGradient
       inkscape:collect="always"
       xlink:href="#linearGradient3195"
       id="linearGradient16481"
       gradientUnits="userSpaceOnUse"
       x1="-2.8468497"
       y1="26.863775"
       x2="53.581642"
       y2="26.863775" />
    <linearGradient
       inkscape:collect="always"
       xlink:href="#linearGradient2738"
       id="linearGradient16483"
       gradientUnits="userSpaceOnUse"
       x1="19.861328"
       y1="174.3788"
       x2="173.83008"
       y2="174.3788" />
    <linearGradient
       inkscape:collect="always"
       xlink:href="#linearGradient3195"
       id="linearGradient16485"
       gradientUnits="userSpaceOnUse"
       x1="19.861328"
       y1="174.3788"
       x2="173.83008"
       y2="174.3788" />
    <radialGradient
       inkscape:collect="always"
       xlink:href="#linearGradient16572"
       id="radialGradient16487"
       gradientUnits="userSpaceOnUse"
       gradientTransform="matrix(1,0,0,0.6511358,0,151.93558)"
       cx="99.233612"
       cy="435.51495"
       fx="99.233612"
       fy="435.51495"
       r="198.96115" />
    <linearGradient
       inkscape:collect="always"
       xlink:href="#linearGradient3195"
       id="linearGradient16489"
       gradientUnits="userSpaceOnUse"
       x1="-102.08354"
       y1="373.87308"
       x2="300.54712"
       y2="373.87308" />
    <radialGradient
       inkscape:collect="always"
       xlink:href="#linearGradient16564"
       id="radialGradient16491"
       gradientUnits="userSpaceOnUse"
       gradientTransform="matrix(0.17250407,-0.98500881,1.3878551,0.24305433,-120.51093,150.29922)"
       cx="60.121403"
       cy="122.67934"
       fx="60.121403"
       fy="122.67934"
       r="52.225349" />
    <linearGradient
       inkscape:collect="always"
       xlink:href="#linearGradient4265"
       id="linearGradient16493"
       gradientUnits="userSpaceOnUse"
       x1="44.581108"
       y1="94.963402"
       x2="96.739098"
       y2="74.628609" />
    <linearGradient
       inkscape:collect="always"
       xlink:href="#linearGradient2738"
       id="linearGradient16519"
       gradientUnits="userSpaceOnUse"
       x1="-2.8468497"
       y1="26.863775"
       x2="53.581642"
       y2="26.863775" />
    <linearGradient
       inkscape:collect="always"
       xlink:href="#linearGradient3195"
       id="linearGradient16521"
       gradientUnits="userSpaceOnUse"
       x1="-2.8468497"
       y1="26.863775"
       x2="53.581642"
       y2="26.863775" />
    <linearGradient
       inkscape:collect="always"
       xlink:href="#linearGradient2738"
       id="linearGradient16523"
       gradientUnits="userSpaceOnUse"
       x1="19.861328"
       y1="174.3788"
       x2="173.83008"
       y2="174.3788" />
    <linearGradient
       inkscape:collect="always"
       xlink:href="#linearGradient3195"
       id="linearGradient16525"
       gradientUnits="userSpaceOnUse"
       x1="19.861328"
       y1="174.3788"
       x2="173.83008"
       y2="174.3788" />
    <radialGradient
       inkscape:collect="always"
       xlink:href="#linearGradient16588"
       id="radialGradient16527"
       gradientUnits="userSpaceOnUse"
       gradientTransform="matrix(1,0,0,0.6511358,0,151.93558)"
       cx="99.233612"
       cy="435.51495"
       fx="99.233612"
       fy="435.51495"
       r="198.96115" />
    <linearGradient
       inkscape:collect="always"
       xlink:href="#linearGradient3195"
       id="linearGradient16529"
       gradientUnits="userSpaceOnUse"
       x1="-102.08354"
       y1="373.87308"
       x2="300.54712"
       y2="373.87308" />
    <radialGradient
       inkscape:collect="always"
       xlink:href="#linearGradient16580"
       id="radialGradient16531"
       gradientUnits="userSpaceOnUse"
       gradientTransform="matrix(0.17250407,-0.98500881,1.3878551,0.24305433,-120.51093,150.29922)"
       cx="60.121403"
       cy="122.67934"
       fx="60.121403"
       fy="122.67934"
       r="52.225349" />
    <linearGradient
       inkscape:collect="always"
       xlink:href="#linearGradient4265"
       id="linearGradient16533"
       gradientUnits="userSpaceOnUse"
       x1="44.581108"
       y1="94.963402"
       x2="96.739098"
       y2="74.628609" />
    <linearGradient
       inkscape:collect="always"
       xlink:href="#linearGradient2738"
       id="linearGradient24879"
       gradientUnits="userSpaceOnUse"
       x1="-2.8468497"
       y1="26.863775"
       x2="53.581642"
       y2="26.863775" />
    <linearGradient
       inkscape:collect="always"
       xlink:href="#linearGradient3195"
       id="linearGradient24881"
       gradientUnits="userSpaceOnUse"
       x1="-2.8468497"
       y1="26.863775"
       x2="53.581642"
       y2="26.863775" />
    <linearGradient
       inkscape:collect="always"
       xlink:href="#linearGradient2738"
       id="linearGradient24883"
       gradientUnits="userSpaceOnUse"
       x1="19.861328"
       y1="174.3788"
       x2="173.83008"
       y2="174.3788" />
    <linearGradient
       inkscape:collect="always"
       xlink:href="#linearGradient3195"
       id="linearGradient24885"
       gradientUnits="userSpaceOnUse"
       x1="19.861328"
       y1="174.3788"
       x2="173.83008"
       y2="174.3788" />
    <radialGradient
       inkscape:collect="always"
       xlink:href="#linearGradient25635"
       id="radialGradient24887"
       gradientUnits="userSpaceOnUse"
       gradientTransform="matrix(1,0,0,0.6511358,0,151.93558)"
       cx="99.233612"
       cy="435.51495"
       fx="99.233612"
       fy="435.51495"
       r="198.96115" />
    <linearGradient
       inkscape:collect="always"
       xlink:href="#linearGradient3195"
       id="linearGradient24889"
       gradientUnits="userSpaceOnUse"
       x1="-102.08354"
       y1="373.87308"
       x2="300.54712"
       y2="373.87308" />
    <radialGradient
       inkscape:collect="always"
       xlink:href="#linearGradient24901"
       id="radialGradient24891"
       gradientUnits="userSpaceOnUse"
       gradientTransform="matrix(0.17250407,-0.98500881,1.3878551,0.24305433,-120.51093,150.29922)"
       cx="60.121403"
       cy="122.67934"
       fx="60.121403"
       fy="122.67934"
       r="52.225349" />
    <linearGradient
       inkscape:collect="always"
       xlink:href="#linearGradient4265"
       id="linearGradient24893"
       gradientUnits="userSpaceOnUse"
       x1="44.581108"
       y1="94.963402"
       x2="96.739098"
       y2="74.628609" />
  </defs>
  <g
     inkscape:label="Bottles_Sphere"
     inkscape:groupmode="layer"
     id="layer1"
     style="display:inline"
     transform="translate(129.34794,-67.788596)">
    <g
       id="g4669"
       transform="matrix(0.79765561,-0.43784534,0.43784534,0.79765561,-132.19902,89.666661)"
       inkscape:export-filename="Poitions\Red.png"
       inkscape:export-xdpi="96"
       inkscape:export-ydpi="96">
      <ellipse
         style="fill:#ffffff;fill-opacity:0.4;stroke:none;stroke-width:14.9817;stroke-opacity:0.729412"
         id="ellipse1789"
         cx="25.371061"
         cy="32.290535"
         rx="28.209648"
         ry="8.2799921" />
      <path
         id="rect1845"
         style="fill:#9b7400;fill-opacity:1;stroke-width:10.2305;stroke-opacity:0.729412"
         d="M 45.773951,0 H 4.9681721 l 7.2763569,33.795988 h 26.253065 z"
         sodipodi:nodetypes="ccccc" />
      <path
         id="ellipse1787"
         style="fill:#ffffff;fill-opacity:0.4;stroke:none;stroke-width:14.9817;stroke-opacity:0.729412"
         d="M 44.270683,6.9825195 42.947249,13.128914 A 17.576202,5.9885812 0 0 1 25.371061,19.117696 17.576202,5.9885812 0 0 1 7.794873,13.128914 L 6.4719564,6.9835531 A 28.209648,8.2799921 0 0 0 -2.8385864,13.128914 28.209648,8.2799921 0 0 0 25.371061,21.409029 28.209648,8.2799921 0 0 0 53.580709,13.128914 28.209648,8.2799921 0 0 0 44.270683,6.9825195 Z" />
      <path
         id="ellipse1791"
         style="fill:#d29d00;fill-opacity:1;stroke:none;stroke-width:10.8357;stroke-opacity:0.729412"
         d="m -25.371061,-5.9887817 a 20.402889,5.9885812 0 0 1 8.720398,0.5756754 l -0.606165,1.8851563 2.989999,-1.4934489 A 20.402889,5.9885812 0 0 1 -4.9681722,0 20.402889,5.9885812 0 0 1 -25.371061,5.9887817 20.402889,5.9885812 0 0 1 -45.77395,0 20.402889,5.9885812 0 0 1 -25.371061,-5.9887817 Z"
         transform="scale(-1,1)" />
      <ellipse
         style="fill:#9b7400;fill-opacity:1;stroke:none;stroke-width:8.774;stroke-opacity:0.729412"
         id="ellipse1895"
         cx="-25.371061"
         cy="32.630611"
         rx="13.377441"
         ry="5.9885812"
         transform="scale(-1,1)" />
      <path
         style="fill:url(#linearGradient2740);fill-opacity:1;stroke:url(#linearGradient3187);stroke-width:1.5875;stroke-dasharray:none;stroke-opacity:0.729412"
         d="m -2.8385865,13.128914 c 0,0 2.30555755,8.280115 28.2096475,8.280115 25.206994,0 28.209648,-8.280115 28.209648,-8.280115 v 19.161621 c 0,0 0.593919,8.869212 -28.209648,8.279993 C -4.1240469,39.967163 -2.8385865,32.290535 -2.8385865,32.290535 Z"
         id="path2447"
         sodipodi:nodetypes="csccscc" />
      <path
         id="path3266"
         style="fill:url(#linearGradient4026);fill-opacity:1;stroke:url(#linearGradient4034);stroke-width:1.42248;stroke-dasharray:none;stroke-opacity:0.729412"
         d="m 20.308594,146.92188 -0.447266,37.47851 c 2.248732,4.2676 6.934728,6.41573 11.150391,8.26367 12.10244,4.76816 25.109775,6.62495 37.972657,7.99805 10.143622,1.09304 20.349781,1.28299 30.542969,1.125 9.416455,0.0215 18.836005,-0.36373 28.187505,-1.51172 11.50592,-1.41234 23.14297,-3.15198 33.98242,-7.42968 4.45703,-1.98694 9.63105,-4.12184 11.76953,-8.86133 l 0.36328,-34.79883 c -0.4966,-1.8497 -2.57159,-0.41161 -3.80664,-0.27149 -23.2152,6.00932 -47.47824,6.75744 -71.396486,6.55469 -20.522074,-0.36399 -41.045994,-1.47596 -61.306641,-4.9414 -5.69565,-0.99343 -11.401437,-2.1739 -17.011719,-3.60547 z"
         transform="scale(0.26458333)"
         sodipodi:nodetypes="ccccccccccccc" />
      <path
         id="path4548"
         style="fill:url(#radialGradient4648);fill-opacity:1;stroke:none;stroke-width:4.70546;stroke-dasharray:none;stroke-opacity:0.729412"
         d="m -41.101563,305.96485 c -17.298996,-0.0418 -34.46975,2.02471 -51.269532,6.85742 -6.973094,25.05836 -9.111785,51.47367 -5.888672,77.28516 7.131472,65.36003 49.928766,125.00885 108.746095,154.00195 30.648561,15.29274 65.281142,23.04518 99.550782,20.46875 64.06351,-2.46369 125.11185,-39.387 158.44336,-93.93555 22.00365,-35.48531 32.50225,-77.98285 29.07813,-119.63476 -0.76199,-11.33199 -2.601,-22.55051 -5.38672,-33.52539 -8.48423,5.85103 -17.28983,11.20008 -26.39649,15.91211 C 206.72476,360.28937 139.99924,347.83145 80.468751,329.52149 41.653547,317.57357 -0.05331217,306.06397 -41.101563,305.96485 Z"
         transform="scale(0.26458333)" />
      <path
         style="fill:none;fill-opacity:1;stroke:url(#linearGradient4044);stroke-width:4.70546;stroke-dasharray:none;stroke-opacity:0.729412"
         d="m 175.02727,182.68896 c -3.00538,0.77292 -3.00233,5.05161 -6.01203,6.20043 -13.58072,8.12468 -29.9258,9.76707 -45.2894,11.749 -20.95556,1.67656 -42.360216,1.21524 -63.200701,-0.93462 -12.944092,-2.29879 -26.878213,-3.92731 -37.642687,-12.04589 -2.86674,-5.14392 -7.378306,-2.12182 -11.221752,-0.0561 -20.4918098,10.11506 -39.173797,23.7169 -54.988369,40.22611 -41.927617,41.85848 -62.255311,103.63208 -54.931954,162.27929 7.131479,65.3601 49.928428,125.00859 108.745816,154.00172 30.648591,15.29275 65.280872,23.04608 99.550547,20.46965 64.06357,-2.46369 125.11248,-39.38681 158.44403,-93.93541 22.00367,-35.48535 32.50105,-77.98392 29.07692,-119.63587 -4.28971,-63.79524 -42.06669,-124.13815 -97.36526,-156.18432 -8.09721,-4.29527 -16.02561,-9.5023 -24.82512,-12.14319 h -0.10109 z"
         id="path4036"
         transform="scale(0.26458333)" />
      <path
         id="path4271"
         style="fill:url(#radialGradient4638);fill-opacity:1;stroke:none;stroke-width:1.24499;stroke-dasharray:none;stroke-opacity:0.729412"
         d="m 77.994455,87.075132 c -2.845689,2.995841 -5.957579,5.725394 -9.291926,8.116377 -14.435335,9.293061 -32.380144,8.575571 -48.664626,6.051321 -15.1318712,-2.349015 -31.356165,-4.44781 -45.594719,2.03979 1.993297,16.95691 11.497334,31.92305 26.7017796,39.62582 8.0643286,4.13472 18.3179984,7.03612 27.3920914,6.45372 16.956256,-0.4663 33.214583,-10.05822 42.190976,-24.39348 5.924207,-9.32454 8.824856,-20.53761 8.039559,-31.567262 -0.119607,-2.126136 -0.38073,-4.239223 -0.773135,-6.326286 z"
         inkscape:transform-center-y="19.458"
         inkscape:transform-center-x="-0.24462489"
         sodipodi:nodetypes="ccccccccc" />
      <path
         style="fill:url(#linearGradient4267);fill-opacity:1;stroke:none;stroke-width:1.24499;stroke-dasharray:none;stroke-opacity:0.729412"
         d="m 33.79122,52.98953 c 20.762695,25.662637 17.944792,69.08406 12.389763,77.64314 -0.3882,7.38966 10.418443,11.74727 13.228515,7.10176 C 91.707361,116.04931 81.541312,56.214247 45.896424,48.6792 47.80789,47.942167 40.314513,53.921643 33.79122,52.98953 Z"
         id="path4259"
         sodipodi:nodetypes="ccccc" />
    </g>
    <g
       id="g4693"
       transform="matrix(0.79765562,-0.43784533,0.43784533,0.79765562,-18.533434,89.443081)"
       inkscape:export-filename="Poitions\Green.png"
       inkscape:export-xdpi="96"
       inkscape:export-ydpi="96">
      <ellipse
         style="fill:#ffffff;fill-opacity:0.4;stroke:none;stroke-width:14.9817;stroke-opacity:0.729412"
         id="ellipse4671"
         cx="25.371061"
         cy="32.290535"
         rx="28.209648"
         ry="8.2799921" />
      <path
         id="path4673"
         style="fill:#9b7400;fill-opacity:1;stroke-width:10.2305;stroke-opacity:0.729412"
         d="M 45.773951,0 H 4.9681721 l 7.2763569,33.795988 h 26.253065 z"
         sodipodi:nodetypes="ccccc" />
      <path
         id="path4675"
         style="fill:#ffffff;fill-opacity:0.4;stroke:none;stroke-width:14.9817;stroke-opacity:0.729412"
         d="M 44.270683,6.9825195 42.947249,13.128914 A 17.576202,5.9885812 0 0 1 25.371061,19.117696 17.576202,5.9885812 0 0 1 7.794873,13.128914 L 6.4719564,6.9835531 A 28.209648,8.2799921 0 0 0 -2.8385864,13.128914 28.209648,8.2799921 0 0 0 25.371061,21.409029 28.209648,8.2799921 0 0 0 53.580709,13.128914 28.209648,8.2799921 0 0 0 44.270683,6.9825195 Z" />
      <path
         id="path4677"
         style="fill:#d29d00;fill-opacity:1;stroke:none;stroke-width:10.8357;stroke-opacity:0.729412"
         d="m -25.371061,-5.9887817 a 20.402889,5.9885812 0 0 1 8.720398,0.5756754 l -0.606165,1.8851563 2.989999,-1.4934489 A 20.402889,5.9885812 0 0 1 -4.9681722,0 20.402889,5.9885812 0 0 1 -25.371061,5.9887817 20.402889,5.9885812 0 0 1 -45.77395,0 20.402889,5.9885812 0 0 1 -25.371061,-5.9887817 Z"
         transform="scale(-1,1)" />
      <ellipse
         style="fill:#9b7400;fill-opacity:1;stroke:none;stroke-width:8.774;stroke-opacity:0.729412"
         id="ellipse4679"
         cx="-25.371061"
         cy="32.630611"
         rx="13.377441"
         ry="5.9885812"
         transform="scale(-1,1)" />
      <path
         style="fill:url(#linearGradient4695);fill-opacity:1;stroke:url(#linearGradient4697);stroke-width:1.5875;stroke-dasharray:none;stroke-opacity:0.729412"
         d="m -2.8385865,13.128914 c 0,0 2.30555755,8.280115 28.2096475,8.280115 25.206994,0 28.209648,-8.280115 28.209648,-8.280115 v 19.161621 c 0,0 0.593919,8.869212 -28.209648,8.279993 C -4.1240469,39.967163 -2.8385865,32.290535 -2.8385865,32.290535 Z"
         id="path4681"
         sodipodi:nodetypes="csccscc" />
      <path
         id="path4683"
         style="fill:url(#linearGradient4699);fill-opacity:1;stroke:url(#linearGradient4701);stroke-width:1.42248;stroke-dasharray:none;stroke-opacity:0.729412"
         d="m 20.308594,146.92188 -0.447266,37.47851 c 2.248732,4.2676 6.934728,6.41573 11.150391,8.26367 12.10244,4.76816 25.109775,6.62495 37.972657,7.99805 10.143622,1.09304 20.349781,1.28299 30.542969,1.125 9.416455,0.0215 18.836005,-0.36373 28.187505,-1.51172 11.50592,-1.41234 23.14297,-3.15198 33.98242,-7.42968 4.45703,-1.98694 9.63105,-4.12184 11.76953,-8.86133 l 0.36328,-34.79883 c -0.4966,-1.8497 -2.57159,-0.41161 -3.80664,-0.27149 -23.2152,6.00932 -47.47824,6.75744 -71.396486,6.55469 -20.522074,-0.36399 -41.045994,-1.47596 -61.306641,-4.9414 -5.69565,-0.99343 -11.401437,-2.1739 -17.011719,-3.60547 z"
         transform="scale(0.26458333)"
         sodipodi:nodetypes="ccccccccccccc" />
      <path
         id="path4685"
         style="fill:url(#radialGradient4703);fill-opacity:1;stroke:none;stroke-width:4.70546;stroke-dasharray:none;stroke-opacity:0.729412"
         d="m -41.101563,305.96485 c -17.298996,-0.0418 -34.46975,2.02471 -51.269532,6.85742 -6.973094,25.05836 -9.111785,51.47367 -5.888672,77.28516 7.131472,65.36003 49.928766,125.00885 108.746095,154.00195 30.648561,15.29274 65.281142,23.04518 99.550782,20.46875 64.06351,-2.46369 125.11185,-39.387 158.44336,-93.93555 22.00365,-35.48531 32.50225,-77.98285 29.07813,-119.63476 -0.76199,-11.33199 -2.601,-22.55051 -5.38672,-33.52539 -8.48423,5.85103 -17.28983,11.20008 -26.39649,15.91211 C 206.72476,360.28937 139.99924,347.83145 80.468751,329.52149 41.653547,317.57357 -0.05331217,306.06397 -41.101563,305.96485 Z"
         transform="scale(0.26458333)" />
      <path
         style="fill:none;fill-opacity:1;stroke:url(#linearGradient4705);stroke-width:4.70546;stroke-dasharray:none;stroke-opacity:0.729412"
         d="m 175.02727,182.68896 c -3.00538,0.77292 -3.00233,5.05161 -6.01203,6.20043 -13.58072,8.12468 -29.9258,9.76707 -45.2894,11.749 -20.95556,1.67656 -42.360216,1.21524 -63.200701,-0.93462 -12.944092,-2.29879 -26.878213,-3.92731 -37.642687,-12.04589 -2.86674,-5.14392 -7.378306,-2.12182 -11.221752,-0.0561 -20.4918098,10.11506 -39.173797,23.7169 -54.988369,40.22611 -41.927617,41.85848 -62.255311,103.63208 -54.931954,162.27929 7.131479,65.3601 49.928428,125.00859 108.745816,154.00172 30.648591,15.29275 65.280872,23.04608 99.550547,20.46965 64.06357,-2.46369 125.11248,-39.38681 158.44403,-93.93541 22.00367,-35.48535 32.50105,-77.98392 29.07692,-119.63587 -4.28971,-63.79524 -42.06669,-124.13815 -97.36526,-156.18432 -8.09721,-4.29527 -16.02561,-9.5023 -24.82512,-12.14319 h -0.10109 z"
         id="path4687"
         transform="scale(0.26458333)" />
      <path
         id="path4689"
         style="fill:url(#radialGradient4707);fill-opacity:1;stroke:none;stroke-width:1.24499;stroke-dasharray:none;stroke-opacity:0.729412"
         d="m 77.994455,87.075132 c -2.845689,2.995841 -5.957579,5.725394 -9.291926,8.116377 -14.435335,9.293061 -32.380144,8.575571 -48.664626,6.051321 -15.1318712,-2.349015 -31.356165,-4.44781 -45.594719,2.03979 1.993297,16.95691 11.497334,31.92305 26.7017796,39.62582 8.0643286,4.13472 18.3179984,7.03612 27.3920914,6.45372 16.956256,-0.4663 33.214583,-10.05822 42.190976,-24.39348 5.924207,-9.32454 8.824856,-20.53761 8.039559,-31.567262 -0.119607,-2.126136 -0.38073,-4.239223 -0.773135,-6.326286 z"
         inkscape:transform-center-y="19.458"
         inkscape:transform-center-x="-0.24462489"
         sodipodi:nodetypes="ccccccccc" />
      <path
         style="fill:url(#linearGradient4709);fill-opacity:1;stroke:none;stroke-width:1.24499;stroke-dasharray:none;stroke-opacity:0.729412"
         d="m 33.79122,52.98953 c 20.762695,25.662637 17.944792,69.08406 12.389763,77.64314 -0.3882,7.38966 10.418443,11.74727 13.228515,7.10176 C 91.707361,116.04931 81.541312,56.214247 45.896424,48.6792 47.80789,47.942167 40.314513,53.921643 33.79122,52.98953 Z"
         id="path4691"
         sodipodi:nodetypes="ccccc" />
    </g>
    <g
       id="g4733"
       transform="matrix(0.79765561,-0.43784535,0.43784535,0.79765561,208.79774,89.027613)"
       inkscape:export-filename="Poitions\Yellow.png"
       inkscape:export-xdpi="96"
       inkscape:export-ydpi="96">
      <ellipse
         style="fill:#ffffff;fill-opacity:0.4;stroke:none;stroke-width:14.9817;stroke-opacity:0.729412"
         id="ellipse4711"
         cx="25.371061"
         cy="32.290535"
         rx="28.209648"
         ry="8.2799921" />
      <path
         id="path4713"
         style="fill:#9b7400;fill-opacity:1;stroke-width:10.2305;stroke-opacity:0.729412"
         d="M 45.773951,0 H 4.9681721 l 7.2763569,33.795988 h 26.253065 z"
         sodipodi:nodetypes="ccccc" />
      <path
         id="path4715"
         style="fill:#ffffff;fill-opacity:0.4;stroke:none;stroke-width:14.9817;stroke-opacity:0.729412"
         d="M 44.270683,6.9825195 42.947249,13.128914 A 17.576202,5.9885812 0 0 1 25.371061,19.117696 17.576202,5.9885812 0 0 1 7.794873,13.128914 L 6.4719564,6.9835531 A 28.209648,8.2799921 0 0 0 -2.8385864,13.128914 28.209648,8.2799921 0 0 0 25.371061,21.409029 28.209648,8.2799921 0 0 0 53.580709,13.128914 28.209648,8.2799921 0 0 0 44.270683,6.9825195 Z" />
      <path
         id="path4717"
         style="fill:#d29d00;fill-opacity:1;stroke:none;stroke-width:10.8357;stroke-opacity:0.729412"
         d="m -25.371061,-5.9887817 a 20.402889,5.9885812 0 0 1 8.720398,0.5756754 l -0.606165,1.8851563 2.989999,-1.4934489 A 20.402889,5.9885812 0 0 1 -4.9681722,0 20.402889,5.9885812 0 0 1 -25.371061,5.9887817 20.402889,5.9885812 0 0 1 -45.77395,0 20.402889,5.9885812 0 0 1 -25.371061,-5.9887817 Z"
         transform="scale(-1,1)" />
      <ellipse
         style="fill:#9b7400;fill-opacity:1;stroke:none;stroke-width:8.774;stroke-opacity:0.729412"
         id="ellipse4719"
         cx="-25.371061"
         cy="32.630611"
         rx="13.377441"
         ry="5.9885812"
         transform="scale(-1,1)" />
      <path
         style="fill:url(#linearGradient4735);fill-opacity:1;stroke:url(#linearGradient4737);stroke-width:1.5875;stroke-dasharray:none;stroke-opacity:0.729412"
         d="m -2.8385865,13.128914 c 0,0 2.30555755,8.280115 28.2096475,8.280115 25.206994,0 28.209648,-8.280115 28.209648,-8.280115 v 19.161621 c 0,0 0.593919,8.869212 -28.209648,8.279993 C -4.1240469,39.967163 -2.8385865,32.290535 -2.8385865,32.290535 Z"
         id="path4721"
         sodipodi:nodetypes="csccscc" />
      <path
         id="path4723"
         style="fill:url(#linearGradient4739);fill-opacity:1;stroke:url(#linearGradient4741);stroke-width:1.42248;stroke-dasharray:none;stroke-opacity:0.729412"
         d="m 20.308594,146.92188 -0.447266,37.47851 c 2.248732,4.2676 6.934728,6.41573 11.150391,8.26367 12.10244,4.76816 25.109775,6.62495 37.972657,7.99805 10.143622,1.09304 20.349781,1.28299 30.542969,1.125 9.416455,0.0215 18.836005,-0.36373 28.187505,-1.51172 11.50592,-1.41234 23.14297,-3.15198 33.98242,-7.42968 4.45703,-1.98694 9.63105,-4.12184 11.76953,-8.86133 l 0.36328,-34.79883 c -0.4966,-1.8497 -2.57159,-0.41161 -3.80664,-0.27149 -23.2152,6.00932 -47.47824,6.75744 -71.396486,6.55469 -20.522074,-0.36399 -41.045994,-1.47596 -61.306641,-4.9414 -5.69565,-0.99343 -11.401437,-2.1739 -17.011719,-3.60547 z"
         transform="scale(0.26458333)"
         sodipodi:nodetypes="ccccccccccccc" />
      <path
         id="path4725"
         style="fill:url(#radialGradient4743);fill-opacity:1;stroke:none;stroke-width:4.70546;stroke-dasharray:none;stroke-opacity:0.729412"
         d="m -41.101563,305.96485 c -17.298996,-0.0418 -34.46975,2.02471 -51.269532,6.85742 -6.973094,25.05836 -9.111785,51.47367 -5.888672,77.28516 7.131472,65.36003 49.928766,125.00885 108.746095,154.00195 30.648561,15.29274 65.281142,23.04518 99.550782,20.46875 64.06351,-2.46369 125.11185,-39.387 158.44336,-93.93555 22.00365,-35.48531 32.50225,-77.98285 29.07813,-119.63476 -0.76199,-11.33199 -2.601,-22.55051 -5.38672,-33.52539 -8.48423,5.85103 -17.28983,11.20008 -26.39649,15.91211 C 206.72476,360.28937 139.99924,347.83145 80.468751,329.52149 41.653547,317.57357 -0.05331217,306.06397 -41.101563,305.96485 Z"
         transform="scale(0.26458333)" />
      <path
         style="fill:none;fill-opacity:1;stroke:url(#linearGradient4745);stroke-width:4.70546;stroke-dasharray:none;stroke-opacity:0.729412"
         d="m 175.02727,182.68896 c -3.00538,0.77292 -3.00233,5.05161 -6.01203,6.20043 -13.58072,8.12468 -29.9258,9.76707 -45.2894,11.749 -20.95556,1.67656 -42.360216,1.21524 -63.200701,-0.93462 -12.944092,-2.29879 -26.878213,-3.92731 -37.642687,-12.04589 -2.86674,-5.14392 -7.378306,-2.12182 -11.221752,-0.0561 -20.4918098,10.11506 -39.173797,23.7169 -54.988369,40.22611 -41.927617,41.85848 -62.255311,103.63208 -54.931954,162.27929 7.131479,65.3601 49.928428,125.00859 108.745816,154.00172 30.648591,15.29275 65.280872,23.04608 99.550547,20.46965 64.06357,-2.46369 125.11248,-39.38681 158.44403,-93.93541 22.00367,-35.48535 32.50105,-77.98392 29.07692,-119.63587 -4.28971,-63.79524 -42.06669,-124.13815 -97.36526,-156.18432 -8.09721,-4.29527 -16.02561,-9.5023 -24.82512,-12.14319 h -0.10109 z"
         id="path4727"
         transform="scale(0.26458333)" />
      <path
         id="path4729"
         style="fill:url(#radialGradient4747);fill-opacity:1;stroke:none;stroke-width:1.24499;stroke-dasharray:none;stroke-opacity:0.729412"
         d="m 77.994455,87.075132 c -2.845689,2.995841 -5.957579,5.725394 -9.291926,8.116377 -14.435335,9.293061 -32.380144,8.575571 -48.664626,6.051321 -15.1318712,-2.349015 -31.356165,-4.44781 -45.594719,2.03979 1.993297,16.95691 11.497334,31.92305 26.7017796,39.62582 8.0643286,4.13472 18.3179984,7.03612 27.3920914,6.45372 16.956256,-0.4663 33.214583,-10.05822 42.190976,-24.39348 5.924207,-9.32454 8.824856,-20.53761 8.039559,-31.567262 -0.119607,-2.126136 -0.38073,-4.239223 -0.773135,-6.326286 z"
         inkscape:transform-center-y="19.458"
         inkscape:transform-center-x="-0.24462489"
         sodipodi:nodetypes="ccccccccc" />
      <path
         style="fill:url(#linearGradient4749);fill-opacity:1;stroke:none;stroke-width:1.24499;stroke-dasharray:none;stroke-opacity:0.729412"
         d="m 33.79122,52.98953 c 20.762695,25.662637 17.944792,69.08406 12.389763,77.64314 -0.3882,7.38966 10.418443,11.74727 13.228515,7.10176 C 91.707361,116.04931 81.541312,56.214247 45.896424,48.6792 47.80789,47.942167 40.314513,53.921643 33.79122,52.98953 Z"
         id="path4731"
         sodipodi:nodetypes="ccccc" />
    </g>
    <g
       id="g4773"
       transform="matrix(0.79765562,-0.43784533,0.43784533,0.79765562,331.25407,89.027613)"
       inkscape:export-filename="Poitions\Purple.png"
       inkscape:export-xdpi="96"
       inkscape:export-ydpi="96">
      <ellipse
         style="fill:#ffffff;fill-opacity:0.4;stroke:none;stroke-width:14.9817;stroke-opacity:0.729412"
         id="ellipse4751"
         cx="25.371061"
         cy="32.290535"
         rx="28.209648"
         ry="8.2799921" />
      <path
         id="path4753"
         style="fill:#9b7400;fill-opacity:1;stroke-width:10.2305;stroke-opacity:0.729412"
         d="M 45.773951,0 H 4.9681721 l 7.2763569,33.795988 h 26.253065 z"
         sodipodi:nodetypes="ccccc" />
      <path
         id="path4755"
         style="fill:#ffffff;fill-opacity:0.4;stroke:none;stroke-width:14.9817;stroke-opacity:0.729412"
         d="M 44.270683,6.9825195 42.947249,13.128914 A 17.576202,5.9885812 0 0 1 25.371061,19.117696 17.576202,5.9885812 0 0 1 7.794873,13.128914 L 6.4719564,6.9835531 A 28.209648,8.2799921 0 0 0 -2.8385864,13.128914 28.209648,8.2799921 0 0 0 25.371061,21.409029 28.209648,8.2799921 0 0 0 53.580709,13.128914 28.209648,8.2799921 0 0 0 44.270683,6.9825195 Z" />
      <path
         id="path4757"
         style="fill:#d29d00;fill-opacity:1;stroke:none;stroke-width:10.8357;stroke-opacity:0.729412"
         d="m -25.371061,-5.9887817 a 20.402889,5.9885812 0 0 1 8.720398,0.5756754 l -0.606165,1.8851563 2.989999,-1.4934489 A 20.402889,5.9885812 0 0 1 -4.9681722,0 20.402889,5.9885812 0 0 1 -25.371061,5.9887817 20.402889,5.9885812 0 0 1 -45.77395,0 20.402889,5.9885812 0 0 1 -25.371061,-5.9887817 Z"
         transform="scale(-1,1)" />
      <ellipse
         style="fill:#9b7400;fill-opacity:1;stroke:none;stroke-width:8.774;stroke-opacity:0.729412"
         id="ellipse4759"
         cx="-25.371061"
         cy="32.630611"
         rx="13.377441"
         ry="5.9885812"
         transform="scale(-1,1)" />
      <path
         style="fill:url(#linearGradient4775);fill-opacity:1;stroke:url(#linearGradient4777);stroke-width:1.5875;stroke-dasharray:none;stroke-opacity:0.729412"
         d="m -2.8385865,13.128914 c 0,0 2.30555755,8.280115 28.2096475,8.280115 25.206994,0 28.209648,-8.280115 28.209648,-8.280115 v 19.161621 c 0,0 0.593919,8.869212 -28.209648,8.279993 C -4.1240469,39.967163 -2.8385865,32.290535 -2.8385865,32.290535 Z"
         id="path4761"
         sodipodi:nodetypes="csccscc" />
      <path
         id="path4763"
         style="fill:url(#linearGradient4779);fill-opacity:1;stroke:url(#linearGradient4781);stroke-width:1.42248;stroke-dasharray:none;stroke-opacity:0.729412"
         d="m 20.308594,146.92188 -0.447266,37.47851 c 2.248732,4.2676 6.934728,6.41573 11.150391,8.26367 12.10244,4.76816 25.109775,6.62495 37.972657,7.99805 10.143622,1.09304 20.349781,1.28299 30.542969,1.125 9.416455,0.0215 18.836005,-0.36373 28.187505,-1.51172 11.50592,-1.41234 23.14297,-3.15198 33.98242,-7.42968 4.45703,-1.98694 9.63105,-4.12184 11.76953,-8.86133 l 0.36328,-34.79883 c -0.4966,-1.8497 -2.57159,-0.41161 -3.80664,-0.27149 -23.2152,6.00932 -47.47824,6.75744 -71.396486,6.55469 -20.522074,-0.36399 -41.045994,-1.47596 -61.306641,-4.9414 -5.69565,-0.99343 -11.401437,-2.1739 -17.011719,-3.60547 z"
         transform="scale(0.26458333)"
         sodipodi:nodetypes="ccccccccccccc" />
      <path
         id="path4765"
         style="fill:url(#radialGradient4783);fill-opacity:1;stroke:none;stroke-width:4.70546;stroke-dasharray:none;stroke-opacity:0.729412"
         d="m -41.101563,305.96485 c -17.298996,-0.0418 -34.46975,2.02471 -51.269532,6.85742 -6.973094,25.05836 -9.111785,51.47367 -5.888672,77.28516 7.131472,65.36003 49.928766,125.00885 108.746095,154.00195 30.648561,15.29274 65.281142,23.04518 99.550782,20.46875 64.06351,-2.46369 125.11185,-39.387 158.44336,-93.93555 22.00365,-35.48531 32.50225,-77.98285 29.07813,-119.63476 -0.76199,-11.33199 -2.601,-22.55051 -5.38672,-33.52539 -8.48423,5.85103 -17.28983,11.20008 -26.39649,15.91211 C 206.72476,360.28937 139.99924,347.83145 80.468751,329.52149 41.653547,317.57357 -0.05331217,306.06397 -41.101563,305.96485 Z"
         transform="scale(0.26458333)" />
      <path
         style="fill:none;fill-opacity:1;stroke:url(#linearGradient4785);stroke-width:4.70546;stroke-dasharray:none;stroke-opacity:0.729412"
         d="m 175.02727,182.68896 c -3.00538,0.77292 -3.00233,5.05161 -6.01203,6.20043 -13.58072,8.12468 -29.9258,9.76707 -45.2894,11.749 -20.95556,1.67656 -42.360216,1.21524 -63.200701,-0.93462 -12.944092,-2.29879 -26.878213,-3.92731 -37.642687,-12.04589 -2.86674,-5.14392 -7.378306,-2.12182 -11.221752,-0.0561 -20.4918098,10.11506 -39.173797,23.7169 -54.988369,40.22611 -41.927617,41.85848 -62.255311,103.63208 -54.931954,162.27929 7.131479,65.3601 49.928428,125.00859 108.745816,154.00172 30.648591,15.29275 65.280872,23.04608 99.550547,20.46965 64.06357,-2.46369 125.11248,-39.38681 158.44403,-93.93541 22.00367,-35.48535 32.50105,-77.98392 29.07692,-119.63587 -4.28971,-63.79524 -42.06669,-124.13815 -97.36526,-156.18432 -8.09721,-4.29527 -16.02561,-9.5023 -24.82512,-12.14319 h -0.10109 z"
         id="path4767"
         transform="scale(0.26458333)" />
      <path
         id="path4769"
         style="fill:url(#radialGradient4787);fill-opacity:1;stroke:none;stroke-width:1.24499;stroke-dasharray:none;stroke-opacity:0.729412"
         d="m 77.994455,87.075132 c -2.845689,2.995841 -5.957579,5.725394 -9.291926,8.116377 -14.435335,9.293061 -32.380144,8.575571 -48.664626,6.051321 -15.1318712,-2.349015 -31.356165,-4.44781 -45.594719,2.03979 1.993297,16.95691 11.497334,31.92305 26.7017796,39.62582 8.0643286,4.13472 18.3179984,7.03612 27.3920914,6.45372 16.956256,-0.4663 33.214583,-10.05822 42.190976,-24.39348 5.924207,-9.32454 8.824856,-20.53761 8.039559,-31.567262 -0.119607,-2.126136 -0.38073,-4.239223 -0.773135,-6.326286 z"
         inkscape:transform-center-y="19.458"
         inkscape:transform-center-x="-0.24462489"
         sodipodi:nodetypes="ccccccccc" />
      <path
         style="fill:url(#linearGradient4789);fill-opacity:1;stroke:none;stroke-width:1.24499;stroke-dasharray:none;stroke-opacity:0.729412"
         d="m 33.79122,52.98953 c 20.762695,25.662637 17.944792,69.08406 12.389763,77.64314 -0.3882,7.38966 10.418443,11.74727 13.228515,7.10176 C 91.707361,116.04931 81.541312,56.214247 45.896424,48.6792 47.80789,47.942167 40.314513,53.921643 33.79122,52.98953 Z"
         id="path4771"
         sodipodi:nodetypes="ccccc" />
    </g>
    <g
       id="g16477"
       transform="matrix(0.79765562,-0.43784533,0.43784533,0.79765562,95.132153,89.027613)"
       inkscape:export-filename="Poitions\Blue.png"
       inkscape:export-xdpi="96"
       inkscape:export-ydpi="96">
      <ellipse
         style="fill:#ffffff;fill-opacity:0.4;stroke:none;stroke-width:14.9817;stroke-opacity:0.729412"
         id="ellipse16455"
         cx="25.371061"
         cy="32.290535"
         rx="28.209648"
         ry="8.2799921" />
      <path
         id="path16457"
         style="fill:#9b7400;fill-opacity:1;stroke-width:10.2305;stroke-opacity:0.729412"
         d="M 45.773951,0 H 4.9681721 l 7.2763569,33.795988 h 26.253065 z"
         sodipodi:nodetypes="ccccc" />
      <path
         id="path16459"
         style="fill:#ffffff;fill-opacity:0.4;stroke:none;stroke-width:14.9817;stroke-opacity:0.729412"
         d="M 44.270683,6.9825195 42.947249,13.128914 A 17.576202,5.9885812 0 0 1 25.371061,19.117696 17.576202,5.9885812 0 0 1 7.794873,13.128914 L 6.4719564,6.9835531 A 28.209648,8.2799921 0 0 0 -2.8385864,13.128914 28.209648,8.2799921 0 0 0 25.371061,21.409029 28.209648,8.2799921 0 0 0 53.580709,13.128914 28.209648,8.2799921 0 0 0 44.270683,6.9825195 Z" />
      <path
         id="path16461"
         style="fill:#d29d00;fill-opacity:1;stroke:none;stroke-width:10.8357;stroke-opacity:0.729412"
         d="m -25.371061,-5.9887817 a 20.402889,5.9885812 0 0 1 8.720398,0.5756754 l -0.606165,1.8851563 2.989999,-1.4934489 A 20.402889,5.9885812 0 0 1 -4.9681722,0 20.402889,5.9885812 0 0 1 -25.371061,5.9887817 20.402889,5.9885812 0 0 1 -45.77395,0 20.402889,5.9885812 0 0 1 -25.371061,-5.9887817 Z"
         transform="scale(-1,1)" />
      <ellipse
         style="fill:#9b7400;fill-opacity:1;stroke:none;stroke-width:8.774;stroke-opacity:0.729412"
         id="ellipse16463"
         cx="-25.371061"
         cy="32.630611"
         rx="13.377441"
         ry="5.9885812"
         transform="scale(-1,1)" />
      <path
         style="fill:url(#linearGradient16479);fill-opacity:1;stroke:url(#linearGradient16481);stroke-width:1.5875;stroke-dasharray:none;stroke-opacity:0.729412"
         d="m -2.8385865,13.128914 c 0,0 2.30555755,8.280115 28.2096475,8.280115 25.206994,0 28.209648,-8.280115 28.209648,-8.280115 v 19.161621 c 0,0 0.593919,8.869212 -28.209648,8.279993 C -4.1240469,39.967163 -2.8385865,32.290535 -2.8385865,32.290535 Z"
         id="path16465"
         sodipodi:nodetypes="csccscc" />
      <path
         id="path16467"
         style="fill:url(#linearGradient16483);fill-opacity:1;stroke:url(#linearGradient16485);stroke-width:1.42248;stroke-dasharray:none;stroke-opacity:0.729412"
         d="m 20.308594,146.92188 -0.447266,37.47851 c 2.248732,4.2676 6.934728,6.41573 11.150391,8.26367 12.10244,4.76816 25.109775,6.62495 37.972657,7.99805 10.143622,1.09304 20.349781,1.28299 30.542969,1.125 9.416455,0.0215 18.836005,-0.36373 28.187505,-1.51172 11.50592,-1.41234 23.14297,-3.15198 33.98242,-7.42968 4.45703,-1.98694 9.63105,-4.12184 11.76953,-8.86133 l 0.36328,-34.79883 c -0.4966,-1.8497 -2.57159,-0.41161 -3.80664,-0.27149 -23.2152,6.00932 -47.47824,6.75744 -71.396486,6.55469 -20.522074,-0.36399 -41.045994,-1.47596 -61.306641,-4.9414 -5.69565,-0.99343 -11.401437,-2.1739 -17.011719,-3.60547 z"
         transform="scale(0.26458333)"
         sodipodi:nodetypes="ccccccccccccc" />
      <path
         id="path16469"
         style="fill:url(#radialGradient16487);fill-opacity:1;stroke:none;stroke-width:4.70546;stroke-dasharray:none;stroke-opacity:0.729412"
         d="m -41.101563,305.96485 c -17.298996,-0.0418 -34.46975,2.02471 -51.269532,6.85742 -6.973094,25.05836 -9.111785,51.47367 -5.888672,77.28516 7.131472,65.36003 49.928766,125.00885 108.746095,154.00195 30.648561,15.29274 65.281142,23.04518 99.550782,20.46875 64.06351,-2.46369 125.11185,-39.387 158.44336,-93.93555 22.00365,-35.48531 32.50225,-77.98285 29.07813,-119.63476 -0.76199,-11.33199 -2.601,-22.55051 -5.38672,-33.52539 -8.48423,5.85103 -17.28983,11.20008 -26.39649,15.91211 C 206.72476,360.28937 139.99924,347.83145 80.468751,329.52149 41.653547,317.57357 -0.05331217,306.06397 -41.101563,305.96485 Z"
         transform="scale(0.26458333)" />
      <path
         style="fill:none;fill-opacity:1;stroke:url(#linearGradient16489);stroke-width:4.70546;stroke-dasharray:none;stroke-opacity:0.729412"
         d="m 175.02727,182.68896 c -3.00538,0.77292 -3.00233,5.05161 -6.01203,6.20043 -13.58072,8.12468 -29.9258,9.76707 -45.2894,11.749 -20.95556,1.67656 -42.360216,1.21524 -63.200701,-0.93462 -12.944092,-2.29879 -26.878213,-3.92731 -37.642687,-12.04589 -2.86674,-5.14392 -7.378306,-2.12182 -11.221752,-0.0561 -20.4918098,10.11506 -39.173797,23.7169 -54.988369,40.22611 -41.927617,41.85848 -62.255311,103.63208 -54.931954,162.27929 7.131479,65.3601 49.928428,125.00859 108.745816,154.00172 30.648591,15.29275 65.280872,23.04608 99.550547,20.46965 64.06357,-2.46369 125.11248,-39.38681 158.44403,-93.93541 22.00367,-35.48535 32.50105,-77.98392 29.07692,-119.63587 -4.28971,-63.79524 -42.06669,-124.13815 -97.36526,-156.18432 -8.09721,-4.29527 -16.02561,-9.5023 -24.82512,-12.14319 h -0.10109 z"
         id="path16471"
         transform="scale(0.26458333)" />
      <path
         id="path16473"
         style="fill:url(#radialGradient16491);fill-opacity:1;stroke:none;stroke-width:1.24499;stroke-dasharray:none;stroke-opacity:0.729412"
         d="m 77.994455,87.075132 c -2.845689,2.995841 -5.957579,5.725394 -9.291926,8.116377 -14.435335,9.293061 -32.380144,8.575571 -48.664626,6.051321 -15.1318712,-2.349015 -31.356165,-4.44781 -45.594719,2.03979 1.993297,16.95691 11.497334,31.92305 26.7017796,39.62582 8.0643286,4.13472 18.3179984,7.03612 27.3920914,6.45372 16.956256,-0.4663 33.214583,-10.05822 42.190976,-24.39348 5.924207,-9.32454 8.824856,-20.53761 8.039559,-31.567262 -0.119607,-2.126136 -0.38073,-4.239223 -0.773135,-6.326286 z"
         inkscape:transform-center-y="19.458"
         inkscape:transform-center-x="-0.24462489"
         sodipodi:nodetypes="ccccccccc" />
      <path
         style="fill:url(#linearGradient16493);fill-opacity:1;stroke:none;stroke-width:1.24499;stroke-dasharray:none;stroke-opacity:0.729412"
         d="m 33.79122,52.98953 c 20.762695,25.662637 17.944792,69.08406 12.389763,77.64314 -0.3882,7.38966 10.418443,11.74727 13.228515,7.10176 C 91.707361,116.04931 81.541312,56.214247 45.896424,48.6792 47.80789,47.942167 40.314513,53.921643 33.79122,52.98953 Z"
         id="path16475"
         sodipodi:nodetypes="ccccc" />
    </g>
    <g
       id="g16517"
       transform="matrix(0.79765562,-0.43784533,0.43784533,0.79765562,453.7104,89.027613)"
       inkscape:export-filename="Poitions\Orange.png"
       inkscape:export-xdpi="96"
       inkscape:export-ydpi="96">
      <ellipse
         style="fill:#ffffff;fill-opacity:0.4;stroke:none;stroke-width:14.9817;stroke-opacity:0.729412"
         id="ellipse16495"
         cx="25.371061"
         cy="32.290535"
         rx="28.209648"
         ry="8.2799921" />
      <path
         id="path16497"
         style="fill:#9b7400;fill-opacity:1;stroke-width:10.2305;stroke-opacity:0.729412"
         d="M 45.773951,0 H 4.9681721 l 7.2763569,33.795988 h 26.253065 z"
         sodipodi:nodetypes="ccccc" />
      <path
         id="path16499"
         style="fill:#ffffff;fill-opacity:0.4;stroke:none;stroke-width:14.9817;stroke-opacity:0.729412"
         d="M 44.270683,6.9825195 42.947249,13.128914 A 17.576202,5.9885812 0 0 1 25.371061,19.117696 17.576202,5.9885812 0 0 1 7.794873,13.128914 L 6.4719564,6.9835531 A 28.209648,8.2799921 0 0 0 -2.8385864,13.128914 28.209648,8.2799921 0 0 0 25.371061,21.409029 28.209648,8.2799921 0 0 0 53.580709,13.128914 28.209648,8.2799921 0 0 0 44.270683,6.9825195 Z" />
      <path
         id="path16501"
         style="fill:#d29d00;fill-opacity:1;stroke:none;stroke-width:10.8357;stroke-opacity:0.729412"
         d="m -25.371061,-5.9887817 a 20.402889,5.9885812 0 0 1 8.720398,0.5756754 l -0.606165,1.8851563 2.989999,-1.4934489 A 20.402889,5.9885812 0 0 1 -4.9681722,0 20.402889,5.9885812 0 0 1 -25.371061,5.9887817 20.402889,5.9885812 0 0 1 -45.77395,0 20.402889,5.9885812 0 0 1 -25.371061,-5.9887817 Z"
         transform="scale(-1,1)" />
      <ellipse
         style="fill:#9b7400;fill-opacity:1;stroke:none;stroke-width:8.774;stroke-opacity:0.729412"
         id="ellipse16503"
         cx="-25.371061"
         cy="32.630611"
         rx="13.377441"
         ry="5.9885812"
         transform="scale(-1,1)" />
      <path
         style="fill:url(#linearGradient16519);fill-opacity:1;stroke:url(#linearGradient16521);stroke-width:1.5875;stroke-dasharray:none;stroke-opacity:0.729412"
         d="m -2.8385865,13.128914 c 0,0 2.30555755,8.280115 28.2096475,8.280115 25.206994,0 28.209648,-8.280115 28.209648,-8.280115 v 19.161621 c 0,0 0.593919,8.869212 -28.209648,8.279993 C -4.1240469,39.967163 -2.8385865,32.290535 -2.8385865,32.290535 Z"
         id="path16505"
         sodipodi:nodetypes="csccscc" />
      <path
         id="path16507"
         style="fill:url(#linearGradient16523);fill-opacity:1;stroke:url(#linearGradient16525);stroke-width:1.42248;stroke-dasharray:none;stroke-opacity:0.729412"
         d="m 20.308594,146.92188 -0.447266,37.47851 c 2.248732,4.2676 6.934728,6.41573 11.150391,8.26367 12.10244,4.76816 25.109775,6.62495 37.972657,7.99805 10.143622,1.09304 20.349781,1.28299 30.542969,1.125 9.416455,0.0215 18.836005,-0.36373 28.187505,-1.51172 11.50592,-1.41234 23.14297,-3.15198 33.98242,-7.42968 4.45703,-1.98694 9.63105,-4.12184 11.76953,-8.86133 l 0.36328,-34.79883 c -0.4966,-1.8497 -2.57159,-0.41161 -3.80664,-0.27149 -23.2152,6.00932 -47.47824,6.75744 -71.396486,6.55469 -20.522074,-0.36399 -41.045994,-1.47596 -61.306641,-4.9414 -5.69565,-0.99343 -11.401437,-2.1739 -17.011719,-3.60547 z"
         transform="scale(0.26458333)"
         sodipodi:nodetypes="ccccccccccccc" />
      <path
         id="path16509"
         style="fill:url(#radialGradient16527);fill-opacity:1;stroke:none;stroke-width:4.70546;stroke-dasharray:none;stroke-opacity:0.729412"
         d="m -41.101563,305.96485 c -17.298996,-0.0418 -34.46975,2.02471 -51.269532,6.85742 -6.973094,25.05836 -9.111785,51.47367 -5.888672,77.28516 7.131472,65.36003 49.928766,125.00885 108.746095,154.00195 30.648561,15.29274 65.281142,23.04518 99.550782,20.46875 64.06351,-2.46369 125.11185,-39.387 158.44336,-93.93555 22.00365,-35.48531 32.50225,-77.98285 29.07813,-119.63476 -0.76199,-11.33199 -2.601,-22.55051 -5.38672,-33.52539 -8.48423,5.85103 -17.28983,11.20008 -26.39649,15.91211 C 206.72476,360.28937 139.99924,347.83145 80.468751,329.52149 41.653547,317.57357 -0.05331217,306.06397 -41.101563,305.96485 Z"
         transform="scale(0.26458333)" />
      <path
         style="fill:none;fill-opacity:1;stroke:url(#linearGradient16529);stroke-width:4.70546;stroke-dasharray:none;stroke-opacity:0.729412"
         d="m 175.02727,182.68896 c -3.00538,0.77292 -3.00233,5.05161 -6.01203,6.20043 -13.58072,8.12468 -29.9258,9.76707 -45.2894,11.749 -20.95556,1.67656 -42.360216,1.21524 -63.200701,-0.93462 -12.944092,-2.29879 -26.878213,-3.92731 -37.642687,-12.04589 -2.86674,-5.14392 -7.378306,-2.12182 -11.221752,-0.0561 -20.4918098,10.11506 -39.173797,23.7169 -54.988369,40.22611 -41.927617,41.85848 -62.255311,103.63208 -54.931954,162.27929 7.131479,65.3601 49.928428,125.00859 108.745816,154.00172 30.648591,15.29275 65.280872,23.04608 99.550547,20.46965 64.06357,-2.46369 125.11248,-39.38681 158.44403,-93.93541 22.00367,-35.48535 32.50105,-77.98392 29.07692,-119.63587 -4.28971,-63.79524 -42.06669,-124.13815 -97.36526,-156.18432 -8.09721,-4.29527 -16.02561,-9.5023 -24.82512,-12.14319 h -0.10109 z"
         id="path16511"
         transform="scale(0.26458333)" />
      <path
         id="path16513"
         style="fill:url(#radialGradient16531);fill-opacity:1;stroke:none;stroke-width:1.24499;stroke-dasharray:none;stroke-opacity:0.729412"
         d="m 77.994455,87.075132 c -2.845689,2.995841 -5.957579,5.725394 -9.291926,8.116377 -14.435335,9.293061 -32.380144,8.575571 -48.664626,6.051321 -15.1318712,-2.349015 -31.356165,-4.44781 -45.594719,2.03979 1.993297,16.95691 11.497334,31.92305 26.7017796,39.62582 8.0643286,4.13472 18.3179984,7.03612 27.3920914,6.45372 16.956256,-0.4663 33.214583,-10.05822 42.190976,-24.39348 5.924207,-9.32454 8.824856,-20.53761 8.039559,-31.567262 -0.119607,-2.126136 -0.38073,-4.239223 -0.773135,-6.326286 z"
         inkscape:transform-center-y="19.458"
         inkscape:transform-center-x="-0.24462489"
         sodipodi:nodetypes="ccccccccc" />
      <path
         style="fill:url(#linearGradient16533);fill-opacity:1;stroke:none;stroke-width:1.24499;stroke-dasharray:none;stroke-opacity:0.729412"
         d="m 33.79122,52.98953 c 20.762695,25.662637 17.944792,69.08406 12.389763,77.64314 -0.3882,7.38966 10.418443,11.74727 13.228515,7.10176 C 91.707361,116.04931 81.541312,56.214247 45.896424,48.6792 47.80789,47.942167 40.314513,53.921643 33.79122,52.98953 Z"
         id="path16515"
         sodipodi:nodetypes="ccccc" />
    </g>
    <g
       id="g24877"
       transform="matrix(0.79765562,-0.43784533,0.43784533,0.79765562,576.16673,89.027613)"
       inkscape:export-filename="Poitions\Pink.png"
       inkscape:export-xdpi="96"
       inkscape:export-ydpi="96">
      <ellipse
         style="fill:#ffffff;fill-opacity:0.4;stroke:none;stroke-width:14.9817;stroke-opacity:0.729412"
         id="ellipse24855"
         cx="25.371061"
         cy="32.290535"
         rx="28.209648"
         ry="8.2799921" />
      <path
         id="path24857"
         style="fill:#9b7400;fill-opacity:1;stroke-width:10.2305;stroke-opacity:0.729412"
         d="M 45.773951,0 H 4.9681721 l 7.2763569,33.795988 h 26.253065 z"
         sodipodi:nodetypes="ccccc" />
      <path
         id="path24859"
         style="fill:#ffffff;fill-opacity:0.4;stroke:none;stroke-width:14.9817;stroke-opacity:0.729412"
         d="M 44.270683,6.9825195 42.947249,13.128914 A 17.576202,5.9885812 0 0 1 25.371061,19.117696 17.576202,5.9885812 0 0 1 7.794873,13.128914 L 6.4719564,6.9835531 A 28.209648,8.2799921 0 0 0 -2.8385864,13.128914 28.209648,8.2799921 0 0 0 25.371061,21.409029 28.209648,8.2799921 0 0 0 53.580709,13.128914 28.209648,8.2799921 0 0 0 44.270683,6.9825195 Z" />
      <path
         id="path24861"
         style="fill:#d29d00;fill-opacity:1;stroke:none;stroke-width:10.8357;stroke-opacity:0.729412"
         d="m -25.371061,-5.9887817 a 20.402889,5.9885812 0 0 1 8.720398,0.5756754 l -0.606165,1.8851563 2.989999,-1.4934489 A 20.402889,5.9885812 0 0 1 -4.9681722,0 20.402889,5.9885812 0 0 1 -25.371061,5.9887817 20.402889,5.9885812 0 0 1 -45.77395,0 20.402889,5.9885812 0 0 1 -25.371061,-5.9887817 Z"
         transform="scale(-1,1)" />
      <ellipse
         style="fill:#9b7400;fill-opacity:1;stroke:none;stroke-width:8.774;stroke-opacity:0.729412"
         id="ellipse24863"
         cx="-25.371061"
         cy="32.630611"
         rx="13.377441"
         ry="5.9885812"
         transform="scale(-1,1)" />
      <path
         style="fill:url(#linearGradient24879);fill-opacity:1;stroke:url(#linearGradient24881);stroke-width:1.5875;stroke-dasharray:none;stroke-opacity:0.729412"
         d="m -2.8385865,13.128914 c 0,0 2.30555755,8.280115 28.2096475,8.280115 25.206994,0 28.209648,-8.280115 28.209648,-8.280115 v 19.161621 c 0,0 0.593919,8.869212 -28.209648,8.279993 C -4.1240469,39.967163 -2.8385865,32.290535 -2.8385865,32.290535 Z"
         id="path24865"
         sodipodi:nodetypes="csccscc" />
      <path
         id="path24867"
         style="fill:url(#linearGradient24883);fill-opacity:1;stroke:url(#linearGradient24885);stroke-width:1.42248;stroke-dasharray:none;stroke-opacity:0.729412"
         d="m 20.308594,146.92188 -0.447266,37.47851 c 2.248732,4.2676 6.934728,6.41573 11.150391,8.26367 12.10244,4.76816 25.109775,6.62495 37.972657,7.99805 10.143622,1.09304 20.349781,1.28299 30.542969,1.125 9.416455,0.0215 18.836005,-0.36373 28.187505,-1.51172 11.50592,-1.41234 23.14297,-3.15198 33.98242,-7.42968 4.45703,-1.98694 9.63105,-4.12184 11.76953,-8.86133 l 0.36328,-34.79883 c -0.4966,-1.8497 -2.57159,-0.41161 -3.80664,-0.27149 -23.2152,6.00932 -47.47824,6.75744 -71.396486,6.55469 -20.522074,-0.36399 -41.045994,-1.47596 -61.306641,-4.9414 -5.69565,-0.99343 -11.401437,-2.1739 -17.011719,-3.60547 z"
         transform="scale(0.26458333)"
         sodipodi:nodetypes="ccccccccccccc" />
      <path
         id="path24869"
         style="fill:url(#radialGradient24887);fill-opacity:1;stroke:none;stroke-width:4.70546;stroke-dasharray:none;stroke-opacity:0.729412"
         d="m -41.101563,305.96485 c -17.298996,-0.0418 -34.46975,2.02471 -51.269532,6.85742 -6.973094,25.05836 -9.111785,51.47367 -5.888672,77.28516 7.131472,65.36003 49.928766,125.00885 108.746095,154.00195 30.648561,15.29274 65.281142,23.04518 99.550782,20.46875 64.06351,-2.46369 125.11185,-39.387 158.44336,-93.93555 22.00365,-35.48531 32.50225,-77.98285 29.07813,-119.63476 -0.76199,-11.33199 -2.601,-22.55051 -5.38672,-33.52539 -8.48423,5.85103 -17.28983,11.20008 -26.39649,15.91211 C 206.72476,360.28937 139.99924,347.83145 80.468751,329.52149 41.653547,317.57357 -0.05331217,306.06397 -41.101563,305.96485 Z"
         transform="scale(0.26458333)" />
      <path
         style="fill:none;fill-opacity:1;stroke:url(#linearGradient24889);stroke-width:4.70546;stroke-dasharray:none;stroke-opacity:0.729412"
         d="m 175.02727,182.68896 c -3.00538,0.77292 -3.00233,5.05161 -6.01203,6.20043 -13.58072,8.12468 -29.9258,9.76707 -45.2894,11.749 -20.95556,1.67656 -42.360216,1.21524 -63.200701,-0.93462 -12.944092,-2.29879 -26.878213,-3.92731 -37.642687,-12.04589 -2.86674,-5.14392 -7.378306,-2.12182 -11.221752,-0.0561 -20.4918098,10.11506 -39.173797,23.7169 -54.988369,40.22611 -41.927617,41.85848 -62.255311,103.63208 -54.931954,162.27929 7.131479,65.3601 49.928428,125.00859 108.745816,154.00172 30.648591,15.29275 65.280872,23.04608 99.550547,20.46965 64.06357,-2.46369 125.11248,-39.38681 158.44403,-93.93541 22.00367,-35.48535 32.50105,-77.98392 29.07692,-119.63587 -4.28971,-63.79524 -42.06669,-124.13815 -97.36526,-156.18432 -8.09721,-4.29527 -16.02561,-9.5023 -24.82512,-12.14319 h -0.10109 z"
         id="path24871"
         transform="scale(0.26458333)" />
      <path
         id="path24873"
         style="fill:url(#radialGradient24891);fill-opacity:1;stroke:none;stroke-width:1.24499;stroke-dasharray:none;stroke-opacity:0.729412"
         d="m 77.994455,87.075132 c -2.845689,2.995841 -5.957579,5.725394 -9.291926,8.116377 -14.435335,9.293061 -32.380144,8.575571 -48.664626,6.051321 -15.1318712,-2.349015 -31.356165,-4.44781 -45.594719,2.03979 1.993297,16.95691 11.497334,31.92305 26.7017796,39.62582 8.0643286,4.13472 18.3179984,7.03612 27.3920914,6.45372 16.956256,-0.4663 33.214583,-10.05822 42.190976,-24.39348 5.924207,-9.32454 8.824856,-20.53761 8.039559,-31.567262 -0.119607,-2.126136 -0.38073,-4.239223 -0.773135,-6.326286 z"
         inkscape:transform-center-y="19.458"
         inkscape:transform-center-x="-0.24462489"
         sodipodi:nodetypes="ccccccccc" />
      <path
         style="fill:url(#linearGradient24893);fill-opacity:1;stroke:none;stroke-width:1.24499;stroke-dasharray:none;stroke-opacity:0.729412"
         d="m 33.79122,52.98953 c 20.762695,25.662637 17.944792,69.08406 12.389763,77.64314 -0.3882,7.38966 10.418443,11.74727 13.228515,7.10176 C 91.707361,116.04931 81.541312,56.214247 45.896424,48.6792 47.80789,47.942167 40.314513,53.921643 33.79122,52.98953 Z"
         id="path24875"
         sodipodi:nodetypes="ccccc" />
    </g>
  </g>
</svg>
